<svg xmlns="http://www.w3.org/2000/svg" width="32" height="32" viewBox="0 0 32 32">
  <!-- SalusCare tab icon: cream tile, orange stethoscope (matches navbar brand) -->
  <rect x="1" y="1" width="30" height="30" rx="7" fill="#FAF7F2" stroke="#E7E0D8" stroke-width="1"/>
  <g transform="translate(6,6) scale(0.8333)" fill="none" stroke="#EA580C" stroke-width="2.2" stroke-linecap="round" stroke-linejoin="round">
    <path d="M4.8 2.3A.3.3 0 1 0 5 2H4a2 2 0 0 0-2 2v5a6 6 0 0 0 6 6 6 6 0 0 0 6-6V4a2 2 0 0 0-2-2h-1a.2.2 0 1 0 .3.3"/>
    <path d="M8 15v1a6 6 0 0 0 6 6 6 6 0 0 0 6-6v-4"/>
    <circle cx="20" cy="10" r="2"/>
  </g>
</svg>
